<svg height="512pt" viewBox="-21 0 512 512" width="512pt" xmlns="http://www.w3.org/2000/svg"><path d="m410.667969 64h-59.4375l-15.785157-31.574219c-10.027343-19.988281-30.121093-32.425781-52.480468-32.425781h-96.597656c-22.355469 0-42.453126 12.4375-52.480469 32.425781l-15.785157 31.574219h-59.433593c-32.363281 0-58.667969 26.304688-58.667969 58.667969v181.332031c0 32.363281 26.304688 58.667969 58.667969 58.667969h58.023437c1.773438 0 3.414063.894531 4.417969 2.34375l91.476563 135.253906c.449218.664063.960937 1.300781 1.492187 1.878906 5.058594 6.207031 12.609375 9.855469 20.589844 9.855469 8 0 15.550781-3.648438 20.605469-9.855469.535156-.578125 1.046874-1.214843 1.472656-1.855469l91.476562-135.253906c1.003906-1.472656 2.648438-2.367187 4.417969-2.367187h58.027344c32.363281 0 58.664062-26.304688 58.664062-58.667969v-181.332031c0-32.363281-26.300781-58.667969-58.664062-58.667969zm0 0" fill="#00bcd4"/><path d="m341.332031 213.332031c0 58.910157-47.753906 106.667969-106.664062 106.667969-58.910157 0-106.667969-47.757812-106.667969-106.667969 0-58.910156 47.757812-106.664062 106.667969-106.664062 58.910156 0 106.664062 47.753906 106.664062 106.664062zm0 0" fill="#fafafa"/><path d="m234.667969 320c-58.816407 0-106.667969-47.851562-106.667969-106.667969 0-58.816406 47.851562-106.664062 106.667969-106.664062 58.816406 0 106.664062 47.847656 106.664062 106.664062 0 58.816407-47.847656 106.667969-106.664062 106.667969zm0-181.332031c-41.175781 0-74.667969 33.492187-74.667969 74.664062 0 41.175781 33.492188 74.667969 74.667969 74.667969 41.171875 0 74.664062-33.492188 74.664062-74.667969 0-41.171875-33.492187-74.664062-74.664062-74.664062zm0 0"/><path d="m234.667969 512c-7.980469 0-15.53125-3.648438-20.589844-9.835938-.53125-.574218-1.042969-1.214843-1.492187-1.875l-91.476563-135.253906c-1.003906-1.472656-2.644531-2.367187-4.417969-2.367187h-58.023437c-32.363281 0-58.667969-26.304688-58.667969-58.667969v-181.332031c0-32.363281 26.304688-58.667969 58.667969-58.667969h59.433593l15.785157-31.574219c10.027343-19.988281 30.125-32.425781 52.480469-32.425781h96.578124c22.355469 0 42.453126 12.4375 52.480469 32.425781l15.804688 31.574219h59.4375c32.363281 0 58.664062 26.304688 58.664062 58.667969v181.332031c0 32.363281-26.300781 58.667969-58.664062 58.667969h-58.027344c-1.769531 0-3.414063.894531-4.417969 2.34375l-91.476562 135.253906c-.449219.664063-.9375 1.28125-1.472656 1.855469-5.054688 6.230468-12.605469 9.878906-20.605469 9.878906zm-176-416c-14.699219 0-26.667969 11.96875-26.667969 26.667969v181.332031c0 14.699219 11.96875 26.667969 26.667969 26.667969h58.023437c12.398438 0 23.960938 6.144531 30.914063 16.425781l87.0625 128.703125 87.058593-128.726563c6.957032-10.28125 18.519532-16.425781 30.914063-16.425781h58.027344c14.699219 0 26.664062-11.96875 26.664062-26.664062v-181.335938c0-14.699219-11.964843-26.664062-26.664062-26.664062h-69.335938c-6.058593 0-11.605469-3.4375-14.3125-8.855469l-20.203125-40.425781c-4.542968-9.046875-13.695312-14.699219-23.851562-14.699219h-96.597656c-10.175782 0-19.304688 5.652344-23.851563 14.742188l-20.199219 40.40625c-2.710937 5.417968-8.257812 8.851562-14.316406 8.851562zm0 0"/></svg>