<?xml version="1.0" encoding="utf-8"?>
<!-- Generator: Adobe Illustrator 19.2.0, SVG Export Plug-In . SVG Version: 6.00 Build 0)  -->
<svg version="1.1" id="Layer_1" xmlns="http://www.w3.org/2000/svg" xmlns:xlink="http://www.w3.org/1999/xlink" x="0px" y="0px"
	 viewBox="0 0 425.2 360.3" style="enable-background:new 0 0 425.2 360.3;" xml:space="preserve">
<style type="text/css">
	.st0{fill:#C32026;}
</style>
<g>
	<path class="st0" d="M150.8,135l-46.4-26.8c-2.7-1.6-6.2-0.7-7.7,2c-1.6,2.7-0.7,6.2,2,7.7c0,0,0,0,0.1,0l46.4,26.8
		c2.8,1.4,6.2,0.4,7.6-2.4C154.2,139.8,153.3,136.6,150.8,135z"/>
	<path class="st0" d="M369.7,160.2l-34.4-18.8c-2.4-1.3-5.4-0.4-6.7,2c-6.5,11.9-2.1,26.8,9.8,33.3c11.9,6.5,26.8,2.1,33.3-9.8
		C372.9,164.5,372,161.5,369.7,160.2z M343,168c-5.6-3.1-8.4-9.3-7.5-15.3l24.3,13.3C355.4,170,348.7,171.1,343,168z"/>
	<path class="st0" d="M416.1,206.1c-3.6-6.4-8.8-12.1-15.1-16.9c7.6-39.4-27.6-59.6-27.6-59.6L162.5,7.6
		c-15.1-8.7-34.3-3.5-43.1,11.5l-29,50.3l-19.3,33.5c-8.7,15.1-3.5,34.3,11.5,43.1l86.5,49.9l-13.4,22.9c-3.6,6.2-10.3,10-17.4,10
		H87.8v-38.5c0-3.1-2.5-5.7-5.7-5.7H51.4v-7.3c0-13.8-11.2-25-25.1-25.1h-17c-3.1,0-5.7,2.5-5.7,5.7v0v191.8c0,3.1,2.5,5.7,5.7,5.7
		c0,0,0,0,0,0h17c13.8,0,25-11.2,25.1-25.1v-18h30.7c3.1,0,5.7-2.5,5.7-5.7v-27.8h50.5c24.9-0.1,48-13.3,60.7-34.7l13.6-23.2
		l47.4,27.4c4.8,2.8,10.2,4.2,15.7,4.2c2.8,0,5.5-0.4,8.2-1.1c5.1-1.4,9.9-4,13.7-7.7c6.2,2.9,13,4.4,19.8,4.4
		c4.2,0,8.4-0.6,12.4-1.6c10.3-2.7,19.4-8.9,25.8-17.5l11.6,6.7c2.7,1.6,6.2,0.6,7.7-2.1l0,0l2.7-4.6c4.2,1.1,9.1,1.6,15,1.2
		c6.4-0.4,12.9,2,17.4,6.5l2.2,2.2c1,1,2.5,1.5,3.9,1.2c1.4-0.3,2.6-1.2,3.2-2.5C423.3,228.1,422.3,216.9,416.1,206.1z M40.1,330.4
		c0,7.6-6.2,13.7-13.7,13.7H15V163.6h11.3c7.6,0,13.7,6.2,13.7,13.7V330.4z M76.5,301.1H51.4V196h25.1V301.1z M189.1,238.5
		c-10.6,18-30,29.1-50.9,29.2H87.8v-27.5h50.5c11.2,0,21.5-5.9,27.2-15.6l13.5-23l23.8,13.7L189.1,238.5z M293.2,231.1L293.2,231.1
		c-0.5,0.8-0.9,1.5-1.4,2.1v0c-6.2,8.1-17.4,10.3-26.1,5.2L88.3,136.2c-9.7-5.6-13-17.9-7.4-27.6L97.4,80l162.5,93.8l49.8,28.8
		L293.2,231.1z M326.8,235.6L326.8,235.6c-7.4,2-15.3,1.6-22.4-1.2l15.1-26.2l26.2,15.1C340.8,229.3,334.2,233.6,326.8,235.6z
		 M367.9,223.1l-36.6-21.1l-11-6.4l-124.9-72.1l-92.2-53.3l26.2-45.4c5.6-9.7,17.9-13,27.6-7.4L368,139.3c0,0,25.2,13.9,23.4,40.9
		C390.5,193.4,367.9,223.1,367.9,223.1z M412.8,227.9c-1.9-1.4-4-2.7-6.2-3.6c-4.6-2-9.7-3-14.8-2.7c-3.4,0.2-6.6,0.1-9.7-0.5
		l14.4-24.5c5,4,9.1,8.6,12,13.7C412,216.4,413.4,222.4,412.8,227.9z"/>
</g>
</svg>
