<?xml version="1.0" encoding="utf-8"?>
<!-- Generator: Adobe Illustrator 19.2.0, SVG Export Plug-In . SVG Version: 6.00 Build 0)  -->
<svg version="1.1" id="Layer_1" xmlns="http://www.w3.org/2000/svg" xmlns:xlink="http://www.w3.org/1999/xlink" x="0px" y="0px"
	 viewBox="0 0 425.2 194.5" style="enable-background:new 0 0 425.2 194.5;" xml:space="preserve">
<style type="text/css">
	.st0{fill:#C32026;}
</style>
<g>
	<path class="st0" d="M278,73.3L253.3,59c-1.4-0.8-3.3-0.4-4.1,1.1c-0.8,1.4-0.4,3.3,1.1,4.1c0,0,0,0,0,0L275,78.6
		c1.5,0.8,3.3,0.2,4.1-1.3C279.8,75.9,279.4,74.2,278,73.3z"/>
	<path class="st0" d="M395,86.8l-18.4-10c-1.3-0.7-2.9-0.2-3.6,1c-3.5,6.3-1.1,14.3,5.2,17.8c6.3,3.5,14.3,1.1,17.8-5.2
		C396.7,89,396.2,87.5,395,86.8z M381,90.9c-3-1.6-4.5-5-4-8.2l13,7.1C387.6,92,384,92.5,381,90.9z"/>
	<path class="st0" d="M29.9,90.3c3.5,6.3,11.4,8.7,17.8,5.2c6.3-3.5,8.7-11.4,5.2-17.8c-0.7-1.3-2.3-1.7-3.6-1l-18.4,10
		C29.7,87.5,29.2,89,29.9,90.3z M35.9,89.8l13-7.1c0.5,3.2-1,6.5-4,8.2C41.9,92.5,38.3,92,35.9,89.8z"/>
	<path class="st0" d="M172.6,59l-24.8,14.3c-1.3,0.8-1.8,2.6-1.1,4c0.8,1.5,2.6,2.1,4.1,1.3l24.8-14.3c0,0,0,0,0,0
		c1.4-0.8,1.9-2.7,1.1-4.1C175.9,58.6,174.1,58.2,172.6,59z"/>
	<path class="st0" d="M419.8,111.3c-1.9-3.4-4.7-6.4-8.1-9c4.1-21.1-14.7-31.9-14.7-31.9L284.3,5.2c-8.1-4.6-18.3-1.9-23,6.2
		l-15.5,26.9l-10.3,17.9c-4.6,8.1-1.9,18.4,6.2,23l46.2,26.7l-7.2,12.3c-1.9,3.3-5.5,5.3-9.3,5.3h-27v-20.6c0-1.7-1.4-3-3-3h-16.4
		V96c0.2-6.9-6.1-12.6-12.2-12.6C206.5,83.3,201,89,201,96v3.9h-16.4c-1.7,0-3,1.4-3,3v20.6h-27c-3.8,0-7.4-2-9.3-5.3l-7.2-12.3
		l46.2-26.7c8-4.7,10.8-15,6.2-23l-10.3-17.9l-15.5-26.9c-4.7-8-14.9-10.8-23-6.2L29,70.4c0,0-18.8,10.8-14.7,31.9
		c-3.3,2.6-6.1,5.6-8.1,9c-3.3,5.8-3.9,11.8-1.6,16.9c0.3,0.7,0.9,1.2,1.7,1.3c0.7,0.1,1.5-0.1,2.1-0.6l1.2-1.2
		c2.4-2.4,5.9-3.7,9.3-3.5c3.1,0.2,5.7-0.1,8-0.7l1.5,2.5l0,0c0.8,1.4,2.7,1.9,4.1,1.1l6.2-3.6c3.4,4.6,8.3,7.9,13.8,9.3
		c2.2,0.6,4.4,0.9,6.6,0.9c3.7,0,7.3-0.8,10.6-2.3c2,2,4.6,3.4,7.3,4.1c1.4,0.4,2.9,0.6,4.4,0.6c2.9,0,5.8-0.8,8.4-2.3l25.3-14.6
		l7.3,12.4c6.8,11.5,19.1,18.5,32.4,18.6h27v14.9c0,1.7,1.4,3,3,3H201v6.9h0v2.9c-0.2,6.9,6.1,12.6,12.2,12.6
		c6.2,0,11.7-5.7,11.7-12.6v-0.1c0,0,0,0,0-0.1v-9.6h16.4c1.7,0,3-1.4,3-3v-14.9h27c13.3,0,25.6-7.1,32.4-18.6l7.3-12.4l25.3,14.6
		c2.5,1.5,5.4,2.3,8.4,2.3c1.5,0,3-0.2,4.4-0.6c2.7-0.7,5.3-2.2,7.3-4.1c3.3,1.5,6.9,2.3,10.6,2.3c2.2,0,4.5-0.3,6.6-0.9
		c5.5-1.5,10.4-4.8,13.8-9.3l6.2,3.6c1.4,0.8,3.3,0.3,4.1-1.1l0,0l1.5-2.5c2.3,0.6,4.8,0.9,8,0.7c3.4-0.2,6.9,1.1,9.3,3.5l1.2,1.2
		c0.5,0.5,1.3,0.8,2.1,0.6c0.7-0.1,1.4-0.6,1.7-1.3C423.7,123.1,423.1,117.1,419.8,111.3z M19.1,119.6c-2.7-0.2-5.4,0.3-7.9,1.4
		c-1.2,0.5-2.3,1.2-3.3,1.9c-0.3-2.9,0.5-6.2,2.3-9.4c1.5-2.7,3.8-5.1,6.4-7.2l7.6,13C22.6,119.6,20.9,119.7,19.1,119.6z
		 M31.9,120.4c0,0-12.1-15.8-12.6-22.9c-1-14.4,12.5-21.9,12.5-21.9l112.8-65.1c5.2-3,11.8-1.2,14.7,3.9l14,24.3l-49.3,28.5
		l-66.7,38.5l-5.9,3.4L31.9,120.4z M53.8,127L53.8,127c-4-1.1-7.5-3.3-10.1-6.5l14-8.1l8.1,14C62,127.9,57.8,128.1,53.8,127z
		 M86.5,128.6c-4.7,2.7-10.7,1.5-14-2.8v0c-0.3-0.4-0.5-0.7-0.8-1.1l0,0L63,109.4L89.6,94l86.8-50.1l8.8,15.3c3,5.2,1.2,11.8-4,14.7
		L86.5,128.6z M181.5,144.2h-27c-11.2,0-21.5-5.9-27.2-15.6l-7.3-12.4l12.7-7.3l7.2,12.3c3,5.1,8.6,8.3,14.5,8.3h27V144.2z M207,96
		c0-3.6,1.7-6.6,5.9-6.6c4.2,0,5.9,3,5.9,6.6v79h0v2.8c0,2.3-1.2,4.4-2.9,5.7c-0.9,0.6-1.9,1-3,1c-1.1,0-2.1-0.4-2.9-1
		c-1.8-1.3-3-3.4-3-5.8V96z M187.6,162v-56.1H201V162H187.6z M238.3,162h-13.4v-56.1h13.4V162z M298.5,128.6
		c-5.7,9.6-16,15.6-27.2,15.6h-27v-14.7h27c6,0,11.5-3.2,14.5-8.3l7.2-12.3l12.7,7.3L298.5,128.6z M354.1,124.7L354.1,124.7
		c-0.2,0.4-0.5,0.8-0.8,1.1v0c-3.3,4.3-9.3,5.5-14,2.8l-94.7-54.7c-5.2-3-6.9-9.6-4-14.7l8.8-15.3L336.3,94l26.6,15.4L354.1,124.7z
		 M372.1,127L372.1,127c-4,1.1-8.2,0.8-12-0.6l8.1-14l14,8.1C379.6,123.7,376.1,126,372.1,127z M394,120.4l-19.6-11.3l-5.9-3.4
		l-66.7-38.5l-49.3-28.5l14-24.3c3-5.2,9.6-6.9,14.7-3.9l112.8,65.1c0,0,13.5,7.5,12.5,21.9C406.1,104.5,394,120.4,394,120.4z
		 M418,123c-1-0.8-2.1-1.4-3.3-1.9c-2.5-1.1-5.2-1.6-7.9-1.4c-1.8,0.1-3.5,0-5.2-0.3l7.6-13c2.6,2.1,4.9,4.5,6.4,7.2
		C417.6,116.8,418.4,120,418,123z"/>
</g>
</svg>
