<?xml version="1.0" encoding="utf-8"?>
<!-- Generator: Adobe Illustrator 19.2.0, SVG Export Plug-In . SVG Version: 6.00 Build 0)  -->
<svg version="1.1" id="Layer_1" xmlns="http://www.w3.org/2000/svg" xmlns:xlink="http://www.w3.org/1999/xlink" x="0px" y="0px"
	 viewBox="0 0 425.2 425.2" style="enable-background:new 0 0 425.2 425.2;" xml:space="preserve">
<style type="text/css">
	.st0{fill:#C32026;}
	.st1{fill:#D4AE34;}
	.st2{fill:#D3AE39;}
</style>
<g>
	<g>
		<ellipse class="st0" cx="212.6" cy="212.6" rx="182.6" ry="177.6"/>
		<path class="st1" d="M212.6,397.6c-104.8,0-190-83-190-185c0-102,85.2-185,190-185s190,83,190,185
			C402.6,314.6,317.4,397.6,212.6,397.6z M212.6,42.4c-96.6,0-175.2,76.4-175.2,170.2S116,382.8,212.6,382.8
			c96.6,0,175.2-76.4,175.2-170.2S309.2,42.4,212.6,42.4z"/>
	</g>
	<g>
		<path class="st2" d="M185.7,176l-25.2-14.6c-1.5-0.9-3.4-0.4-4.2,1.1c-0.9,1.5-0.4,3.4,1.1,4.2c0,0,0,0,0,0l25.2,14.6
			c1.5,0.8,3.4,0.2,4.2-1.3C187.6,178.6,187.1,176.9,185.7,176z"/>
		<path class="st2" d="M304.8,189.7l-18.7-10.2c-1.3-0.7-2.9-0.2-3.6,1.1c-3.5,6.5-1.1,14.6,5.3,18.1c6.5,3.5,14.6,1.1,18.1-5.3
			C306.6,192,306.1,190.4,304.8,189.7z M290.3,194c-3.1-1.7-4.6-5.1-4.1-8.3l13.2,7.2C297.1,195.1,293.4,195.6,290.3,194z"/>
		<path class="st2" d="M330.1,214.7c-2-3.5-4.8-6.6-8.2-9.2c4.1-21.5-15-32.4-15-32.4l-114.7-66.3c-8.2-4.7-18.7-1.9-23.4,6.3
			l-15.8,27.4l-10.5,18.2c-4.7,8.2-1.9,18.7,6.3,23.4l47,27.2l-7.3,12.5c-2,3.4-5.6,5.4-9.5,5.4h-27.5v-20.9c0-1.7-1.4-3.1-3.1-3.1
			h-16.7v-4c0-7.5-6.1-13.6-13.6-13.6h-9.2c-1.7,0-3.1,1.4-3.1,3.1v0v104.4c0,1.7,1.4,3.1,3.1,3.1c0,0,0,0,0,0h9.2
			c7.5,0,13.6-6.1,13.6-13.6v-9.8h16.7c1.7,0,3.1-1.4,3.1-3.1v-15.1h27.5c13.6,0,26.1-7.2,33-18.9l7.4-12.6l25.8,14.9
			c2.6,1.5,5.5,2.3,8.5,2.3c1.5,0,3-0.2,4.5-0.6c2.8-0.7,5.4-2.2,7.5-4.2c3.4,1.6,7,2.4,10.8,2.4c2.3,0,4.5-0.3,6.7-0.9
			c5.6-1.5,10.6-4.8,14-9.5l6.3,3.6c1.5,0.9,3.4,0.3,4.2-1.1l0,0l1.5-2.5c2.3,0.6,5,0.9,8.1,0.7c3.5-0.2,7,1.1,9.5,3.5l1.2,1.2
			c0.6,0.5,1.3,0.8,2.1,0.6c0.8-0.1,1.4-0.7,1.7-1.4C334,226.7,333.4,220.6,330.1,214.7z M125.5,282.3c0,4.1-3.3,7.5-7.5,7.5h-6.2
			v-98.2h6.2c4.1,0,7.5,3.3,7.5,7.5V282.3z M145.3,266.4h-13.6v-57.2h13.6V266.4z M206.6,232.3c-5.8,9.8-16.3,15.8-27.7,15.9h-27.5
			v-15h27.5c6.1,0,11.7-3.2,14.8-8.5l7.3-12.5l13,7.5L206.6,232.3z M263.2,228.3L263.2,228.3c-0.2,0.4-0.5,0.8-0.8,1.2v0
			c-3.4,4.4-9.4,5.6-14.2,2.8l-96.5-55.7c-5.3-3-7.1-9.8-4-15l9-15.5l88.4,51l27.1,15.6L263.2,228.3z M281.5,230.7L281.5,230.7
			c-4,1.1-8.3,0.9-12.2-0.6l8.2-14.2l14.2,8.2C289.1,227.3,285.6,229.7,281.5,230.7z M303.9,223.9l-19.9-11.5l-6-3.5l-68-39.2
			l-50.2-29l14.3-24.7c3-5.3,9.8-7.1,15-4l114.9,66.3c0,0,13.7,7.6,12.7,22.3C316.2,207.8,303.9,223.9,303.9,223.9z M328.3,226.6
			c-1-0.8-2.2-1.4-3.4-2c-2.5-1.1-5.3-1.6-8-1.4c-1.8,0.1-3.6,0-5.3-0.3l7.8-13.3c2.7,2.2,4.9,4.7,6.5,7.4
			C327.9,220.3,328.6,223.6,328.3,226.6z"/>
	</g>
</g>
</svg>
