<?xml version="1.0" encoding="utf-8"?>
<!-- Generator: Adobe Illustrator 19.2.0, SVG Export Plug-In . SVG Version: 6.00 Build 0)  -->
<svg version="1.1" id="Layer_1" xmlns="http://www.w3.org/2000/svg" xmlns:xlink="http://www.w3.org/1999/xlink" x="0px" y="0px"
	 viewBox="0 0 425.2 425.2" style="enable-background:new 0 0 425.2 425.2;" xml:space="preserve">
<style type="text/css">
	.st0{fill:#C32026;}
	.st1{fill:#D4AE34;}
	.st2{fill:#D3AE39;}
</style>
<g>
	<ellipse class="st0" cx="212.6" cy="212.6" rx="182.6" ry="177.6"/>
	<path class="st1" d="M212.6,397.6c-104.8,0-190-83-190-185c0-102,85.2-185,190-185s190,83,190,185
		C402.6,314.6,317.4,397.6,212.6,397.6z M212.6,42.4c-96.6,0-175.2,76.4-175.2,170.2S116,382.8,212.6,382.8
		c96.6,0,175.2-76.4,175.2-170.2S309.2,42.4,212.6,42.4z"/>
</g>
<g>
	<path class="st2" d="M261.9,200.6L243.6,190c-1.1-0.6-2.4-0.3-3.1,0.8c-0.6,1.1-0.3,2.4,0.8,3.1c0,0,0,0,0,0l18.3,10.6
		c1.1,0.6,2.4,0.1,3-0.9C263.3,202.5,262.9,201.2,261.9,200.6z"/>
	<path class="st2" d="M348.5,210.6l-13.6-7.4c-0.9-0.5-2.1-0.2-2.6,0.8c-2.6,4.7-0.8,10.6,3.9,13.2c4.7,2.6,10.6,0.8,13.2-3.9
		C349.8,212.2,349.4,211.1,348.5,210.6z M338.2,213.6c-2.2-1.2-3.3-3.7-2.9-6l9.6,5.3C343.1,214.4,340.4,214.8,338.2,213.6z"/>
	<path class="st2" d="M78.3,213.2c2.6,4.7,8.5,6.4,13.2,3.9c4.7-2.6,6.4-8.5,3.9-13.2c-0.5-0.9-1.7-1.3-2.6-0.8L79,210.6
		C78.1,211.1,77.8,212.2,78.3,213.2z M82.7,212.8l9.6-5.3c0.4,2.4-0.7,4.8-2.9,6C87.2,214.8,84.5,214.4,82.7,212.8z"/>
	<path class="st2" d="M183.9,190l-18.3,10.6c-1,0.6-1.3,1.9-0.8,2.9c0.6,1.1,1.9,1.5,3,0.9l18.3-10.6c0,0,0,0,0,0
		c1.1-0.6,1.4-2,0.8-3.1C186.4,189.8,185,189.4,183.9,190z"/>
	<path class="st2" d="M366.8,228.7c-1.4-2.5-3.5-4.8-6-6.7c3-15.6-10.9-23.6-10.9-23.6l-83.4-48.2c-6-3.4-13.6-1.4-17,4.6
		l-11.5,19.9l-7.6,13.2c-3.4,6-1.4,13.6,4.6,17l34.2,19.7l-5.3,9.1c-1.4,2.4-4.1,3.9-6.9,3.9h-20v-15.2c0-1.2-1-2.2-2.2-2.2h-12.1
		v-2.9c0.1-5.1-4.5-9.3-9.1-9.3c-4.6,0-8.7,4.2-8.7,9.3v2.9h-12.1c-1.2,0-2.2,1-2.2,2.2v15.2h-20c-2.8,0-5.5-1.5-6.9-3.9l-5.3-9.1
		l34.2-19.7c6-3.4,8-11.1,4.6-17l-7.6-13.2L178,154.8c-3.4-6-11.1-8-17-4.6l-83.4,48.2c0,0-13.9,8-10.9,23.6c-2.5,1.9-4.5,4.2-6,6.7
		c-2.4,4.3-2.9,8.7-1.2,12.5c0.2,0.5,0.7,0.9,1.3,1c0.6,0.1,1.1-0.1,1.5-0.5l0.9-0.9c1.8-1.8,4.4-2.7,6.9-2.6
		c2.3,0.2,4.2-0.1,5.9-0.5l1.1,1.8l0,0c0.6,1.1,2,1.4,3.1,0.8l4.6-2.6c2.5,3.4,6.1,5.8,10.2,6.9c1.6,0.4,3.2,0.6,4.9,0.6
		c2.7,0,5.4-0.6,7.8-1.7c1.5,1.5,3.4,2.5,5.4,3.1c1.1,0.3,2.2,0.4,3.2,0.4c2.2,0,4.3-0.6,6.2-1.7l18.7-10.8l5.4,9.2
		c5,8.5,14.1,13.7,24,13.7h20v11c0,1.2,1,2.2,2.2,2.2h12.1v5.1h0v2.2c-0.1,5.1,4.5,9.3,9.1,9.3c4.6,0,8.7-4.2,8.7-9.3v-0.1
		c0,0,0,0,0,0v-7.1h12.1c1.2,0,2.2-1,2.2-2.2v-11h20c9.9,0,19-5.2,24-13.7l5.4-9.2l18.7,10.8c1.9,1.1,4,1.7,6.2,1.7
		c1.1,0,2.2-0.1,3.2-0.4c2-0.5,3.9-1.6,5.4-3.1c2.5,1.1,5.1,1.7,7.8,1.7c1.7,0,3.3-0.2,4.9-0.6c4.1-1.1,7.7-3.5,10.2-6.9l4.6,2.6
		c1.1,0.6,2.4,0.3,3.1-0.8l0,0l1.1-1.8c1.7,0.4,3.6,0.7,5.9,0.5c2.5-0.2,5.1,0.8,6.9,2.6l0.9,0.9c0.4,0.4,1,0.6,1.5,0.5
		c0.6-0.1,1-0.5,1.3-1C369.7,237.4,369.3,233,366.8,228.7z M70.3,234.9c-2-0.1-4,0.2-5.8,1c-0.9,0.4-1.7,0.9-2.4,1.4
		c-0.2-2.2,0.3-4.6,1.7-6.9c1.1-2,2.8-3.8,4.8-5.4l5.7,9.6C72.9,234.9,71.6,235,70.3,234.9z M79.8,235.4c0,0-8.9-11.7-9.3-16.9
		c-0.7-10.7,9.3-16.2,9.3-16.2l83.5-48.2c3.8-2.2,8.7-0.9,10.9,2.9l10.4,17.9L148,196l-49.4,28.5l-4.4,2.5L79.8,235.4z M96,240.4
		L96,240.4c-2.9-0.8-5.5-2.5-7.5-4.8l10.3-6l6,10.3C102,241,98.9,241.2,96,240.4z M120.2,241.5c-3.5,2-7.9,1.1-10.3-2.1v0
		c-0.2-0.3-0.4-0.5-0.6-0.8l0,0l-6.5-11.3l19.7-11.4l64.2-37.1l6.5,11.3c2.2,3.8,0.9,8.7-2.9,10.9L120.2,241.5z M190.5,253h-20
		c-8.3,0-15.9-4.4-20.1-11.5l-5.4-9.2l9.4-5.4l5.3,9.1c2.2,3.8,6.3,6.2,10.8,6.2h20V253z M209.4,217.4c0-2.6,1.3-4.9,4.4-4.9
		c3.1,0,4.4,2.2,4.4,4.9v58.5h0v2c0,1.7-0.9,3.2-2.1,4.2c-0.7,0.4-1.4,0.8-2.2,0.8c-0.8,0-1.5-0.3-2.2-0.7c-1.3-1-2.2-2.5-2.2-4.3
		V217.4z M195,266.3v-41.6h9.9v41.6H195z M232.5,266.3h-9.9v-41.6h9.9V266.3z M277.1,241.5c-4.2,7.1-11.9,11.5-20.1,11.5h-20v-10.9
		h20c4.4,0,8.5-2.4,10.8-6.2l5.3-9.1l9.4,5.4L277.1,241.5z M318.3,238.6L318.3,238.6c-0.2,0.3-0.4,0.6-0.6,0.8v0
		c-2.4,3.2-6.9,4.1-10.3,2.1l-70.1-40.5c-3.8-2.2-5.1-7.1-2.9-10.9l6.5-11.3l64.2,37.1l19.7,11.4L318.3,238.6z M331.6,240.4
		L331.6,240.4c-2.9,0.8-6,0.6-8.9-0.5l6-10.3l10.3,6C337.1,237.9,334.5,239.6,331.6,240.4z M347.8,235.4l-14.5-8.4l-4.4-2.5
		L279.5,196L243.1,175l10.4-17.9c2.2-3.8,7.1-5.1,10.9-2.9l83.5,48.2c0,0,10,5.5,9.3,16.2C356.7,223.7,347.8,235.4,347.8,235.4z
		 M365.6,237.4c-0.8-0.6-1.6-1-2.4-1.4c-1.8-0.8-3.8-1.2-5.8-1c-1.3,0.1-2.6,0-3.8-0.2l5.7-9.6c2,1.6,3.6,3.4,4.8,5.4
		C365.2,232.8,365.8,235.2,365.6,237.4z"/>
</g>
</svg>
